<svg width="129" height="30" viewBox="0 0 129 30" fill="none" xmlns="http://www.w3.org/2000/svg">
<path d="M17.5468 3.32568L14.9597 7.89778L12.3733 3.32568H9.74561L14.9597 12.5414L20.1745 3.32568H17.5468Z" fill="#1677FF"/>
<path d="M14.9594 22.1028L17.5465 26.6742H20.1741L14.9594 17.4585L9.74463 26.6742H12.3729L14.9594 22.1028Z" fill="#1677FF"/>
<path d="M12.8728 16.2292H5.28845V13.7706H12.8728L8.31559 5.71582H5.68729L8.93193 11.4488H3.0127V18.551H8.93193L5.68729 24.284H8.31559L12.8728 16.2292Z" fill="#1677FF"/>
<path d="M17.0464 13.7706H24.6314V16.2292H17.0464L21.6042 24.284H24.2325L20.9879 18.551H26.9071V11.4488H20.9879L24.2325 5.71582H21.6042L17.0464 13.7706Z" fill="#1677FF"/>
<path d="M45.7646 8.58008V22.4673H42.9746V13.4345L39.2474 22.4673H37.1346L33.3878 13.4345V22.4673H30.5972V8.58008H33.7664L38.191 18.9061L42.6157 8.58008H45.7646Z" fill="#1677FF"/>
<path d="M47.7982 13.9517C48.2433 13.0895 48.8476 12.4261 49.6117 11.9622C50.3758 11.4982 51.2293 11.2659 52.1728 11.2659C52.9965 11.2659 53.7174 11.4317 54.3351 11.7634C54.9527 12.0951 55.4479 12.5129 55.8201 13.0167V11.445H58.6304V22.4679H55.8201V20.8563C55.4612 21.3735 54.966 21.8014 54.3351 22.1394C53.7035 22.4774 52.9762 22.6464 52.1525 22.6464C51.2223 22.6464 50.3752 22.4078 49.6111 21.9305C48.847 21.4532 48.2427 20.7797 47.7976 19.9106C47.3518 19.0422 47.1299 18.0439 47.1299 16.916C47.1299 15.788 47.3524 14.8138 47.7976 13.9517M55.4219 15.2151C55.1562 14.7309 54.7973 14.3593 54.3458 14.101C53.8937 13.8421 53.4093 13.713 52.8906 13.713C52.3719 13.713 51.8938 13.839 51.4556 14.0909C51.0169 14.3428 50.6611 14.7112 50.3891 15.1955C50.1171 15.6797 49.9808 16.2532 49.9808 16.9166C49.9808 17.58 50.1171 18.1604 50.3891 18.6573C50.6611 19.1548 51.02 19.5365 51.4652 19.8011C51.9103 20.067 52.3852 20.1993 52.89 20.1993C53.3947 20.1993 53.8931 20.0701 54.3452 19.8113C54.7967 19.553 55.1556 19.1814 55.4213 18.6972C55.6869 18.213 55.8201 17.6325 55.8201 16.9565C55.8201 16.2804 55.6869 15.7 55.4213 15.2157" fill="#1677FF"/>
<path d="M66.5349 22.4674L64.263 19.0454L62.2498 22.4674H59.26L62.868 16.9363L59.2207 11.4451H62.3696L64.6219 14.8474L66.6548 11.4451H69.6445L66.0169 16.9363L69.6845 22.4674H66.5349Z" fill="#1677FF"/>
<path d="M81.8382 8.58008V22.4673H79.0475V16.5583H73.0883V22.4673H70.2983V8.58008H73.0883V14.2903H79.0475V8.58008H81.8382Z" fill="#1677FF"/>
<path d="M85.8964 21.9401C85.0461 21.4692 84.3784 20.8027 83.8933 19.9405C83.4082 19.0784 83.166 18.084 83.166 16.956C83.166 15.828 83.4152 14.8342 83.9136 13.9714C84.412 13.1093 85.0924 12.4427 85.9566 11.9718C86.8203 11.5015 87.7835 11.2654 88.8468 11.2654C89.9102 11.2654 90.8728 11.5009 91.737 11.9718C92.6007 12.4427 93.2817 13.1093 93.7801 13.9714C94.2785 14.8336 94.5277 15.8286 94.5277 16.956C94.5277 18.0833 94.2721 19.0784 93.7604 19.9405C93.2487 20.8033 92.5575 21.4692 91.6876 21.9401C90.817 22.4111 89.8436 22.6466 88.7676 22.6466C87.6915 22.6466 86.7474 22.4111 85.8977 21.9401M90.1911 19.8513C90.6362 19.6063 90.9913 19.2379 91.257 18.7473C91.5227 18.2568 91.6559 17.6599 91.6559 16.9566C91.6559 15.909 91.38 15.1032 90.8284 14.5392C90.2767 13.9752 89.6027 13.6935 88.8056 13.6935C88.0086 13.6935 87.3409 13.9752 86.8025 14.5392C86.2642 15.1032 85.9953 15.909 85.9953 16.9566C85.9953 18.0042 86.2572 18.8106 86.7822 19.374C87.3073 19.938 87.968 20.2197 88.7657 20.2197C89.2704 20.2197 89.7453 20.0969 90.1905 19.8513" fill="#1677FF"/>
<path d="M112.691 12.5295C113.521 13.3587 113.937 14.5158 113.937 16.0014V22.4681H111.147V16.38C111.147 15.5178 110.927 14.8576 110.489 14.4006C110.05 13.9429 109.453 13.7138 108.695 13.7138C107.938 13.7138 107.336 13.9429 106.891 14.4006C106.446 14.8582 106.224 15.5185 106.224 16.38V22.4681H103.434V16.38C103.434 15.5178 103.214 14.8576 102.775 14.4006C102.337 13.9429 101.739 13.7138 100.982 13.7138C100.224 13.7138 99.603 13.9429 99.1579 14.4006C98.7128 14.8582 98.4902 15.5185 98.4902 16.38V22.4681H95.7002V11.4452H98.4902V12.7782C98.8491 12.3143 99.3107 11.9497 99.8757 11.6838C100.44 11.4186 101.061 11.2856 101.739 11.2856C102.603 11.2856 103.373 11.4679 104.051 11.8325C104.729 12.1972 105.253 12.7181 105.626 13.3941C105.985 12.7574 106.506 12.2472 107.191 11.8623C107.875 11.4781 108.615 11.2856 109.413 11.2856C110.768 11.2856 111.861 11.7003 112.691 12.5288" fill="#1677FF"/>
<path d="M125.908 17.792H117.836C117.902 18.5877 118.181 19.2112 118.673 19.6619C119.164 20.1132 119.769 20.3385 120.487 20.3385C121.524 20.3385 122.26 19.8942 122.699 19.0055H125.709C125.39 20.067 124.778 20.9386 123.875 21.6216C122.971 22.3052 121.862 22.6464 120.547 22.6464C119.483 22.6464 118.53 22.4109 117.687 21.94C116.843 21.4691 116.185 20.8025 115.714 19.9404C115.242 19.0782 115.006 18.0832 115.006 16.9558C115.006 15.8285 115.238 14.8138 115.703 13.9517C116.168 13.0895 116.819 12.4261 117.656 11.9622C118.493 11.4982 119.457 11.2659 120.547 11.2659C121.637 11.2659 122.536 11.4918 123.367 11.9425C124.197 12.3939 124.842 13.0338 125.3 13.8624C125.759 14.6916 125.988 15.643 125.988 16.7172C125.988 17.1153 125.962 17.473 125.908 17.792M123.097 15.9215C123.084 15.2056 122.825 14.6315 122.32 14.2004C121.815 13.7694 121.197 13.5535 120.467 13.5535C119.775 13.5535 119.194 13.7624 118.723 14.1802C118.251 14.5979 117.962 15.1784 117.856 15.9209H123.098L123.097 15.9215Z" fill="#1677FF"/>
</svg>
